<?xml version="1.0" encoding="utf-8"?>
<svg version="1.1" id="Layer_1" xmlns="http://www.w3.org/2000/svg" xmlns:xlink="http://www.w3.org/1999/xlink" x="0px" y="0px"
	 viewBox="0 0 1345.672 1693.834" enable-background="new 0 0 1345.672 1693.834" xml:space="preserve">
<path d="M1303.433,1619.063c-7.901-33.865-21.42-54.436-27.275-71.078c-11.819-33.877-19.447-60.693-65.335-129.741
	c-25.89-38.265-23.55-31.256-36.811-48.571c-15.447-20.074-5.155-8.886-29.156-37.893c-38.039-47.174-66.981-24.434-68.024-52.729
	c-0.312-22.386-12.969-29.216-16.475-38.532c-2.687-6.643-3.287-23.027-13.565-36.834c-8.136-11.425-18.442-14.957-17.999-23.672
	c-0.291-6.193,5.159-15.409,1.196-31.655c-4.627-18.282,4.524-24.399-22.012-42.447c-8.77-5.797-10.424-13.237-23.847-25.523
	c-10.882-9.838-3.399-19.616,0.602-36.773c6.811-25.529-4.115-58.381,9.574-89.122c6.609-14.606,17.846-16.863,25.492-36.262
	c4.904-11.767,2.638-20.22,11.265-31.205c5.233-7.038,10.953-14.068,13.291-22.705c3.709-13.596,8.873-26.757,12.088-40.49
	c4.059-16.47,9.308-60.315,31.365-101.026c7.483-14.927,20.184-44.344,21.402-48.845c8.691-32.19,6.924-64.393,10.275-77.27
	c3.966-16.36,1.856-39.741,6.01-56.5c1.782-7.457,0.952-15.271-0.959-22.614c-8.416-34.152-11.07-56.057-16.399-81.924
	c-13.642-54.752-40.544-123.88-78.26-167.153c-29.573-32.256-23.56-20.274-43.063-34.701c-8.087-5.849-11.346-25.524-10.305-31.677
	c5.532-10.303,22.325-14.901,22.133-23.924c-7.779-3.644-30.5,13.653-41.723,7.609c-9.969-5.052-8.621-20.216-12.689-26.597
	c-2.62-4.189-5.933-7.944-8.089-12.415c-0.84-1.7-10.199-25.178-25.5-28.288c-7.129-1.455-14.221-4.235-21.593-3.511
	c6.353,4.882,16.094,6.045,18.531,19.11c-3.024-0.868-5.697,0.838-8.592,1.188c-11.584-0.876-33.795-11.04-36.536-11.951
	c-6.497-2.102-13.656-3.504-18.653-8.523c-4.41-3.778-7.159-9.483-12.636-11.912c0,0-21.345-2.586-35.387-6.619
	c-11.019-3.217-26.03-15.078-40.764-23.078c-26.022-14.122-26.082-10.258-47.238-13.954c-16.645-1.343-38.873-9.134-45.265-10.298
	c-52.228-10.522-70.682,15.63-90.957,16.551c-8.024,0.62-15.849,4.951-24.975,1.897c-8.898-2.637-8.553-4.67-26.087-3.412
	c-14.384,2.21-17.945-1.492-23.672,6.497c1.843,0.518,5.088-0.503,5.255,2.262c-29.982,5.406,1.001,1.085-39.377,6.611
	c-7,1.089-13.535,4.159-20.573,5.012c-1,0.174-54.95,1.701-91.444,22.385c-30.283,15.876-35.172,13.528-46.164,18.523
	c-25.564,10.733-8.964,8.87-40.878,16.178c-5.743,1.226-11.021,3.938-16.703,5.339c-1,0.26-36.047,7.647-48.198,15.987
	c-18.212,12.976-25.116,16.547-31.967,25.775c1.95,3.146-0.678,6.329-0.198,9.658c-0.302,3.969,0.886,6.292,4.136,23.672
	c-3.732,6.802-11.159,11.691-12.529,19.75c0.08,3.825-1.619,5.556,5.895,6.779c0.655-1.912,1.424-4.143,3.846-4.151
	c0.129,2.049-0.457,4.44,1.036,6.162c7.879,10.993,4.174,10.715,2.422,13.177c-2.789,3.453-10.899,9.636-5.255,11.813
	c4.311,1.752,9.117,0.16,13.58,1.287c22.898,5.68,19.13,7.016,20.352,22.865c0.068,3.819,6.976,7.362,10.823,13.222
	c1.195,15.605-8.751,15.526-22.949,55.86c0,0.001-14.311,45.889-14.312,45.89c-1.351,5.81-22.164,59.857-25.66,71.824
	c-2.437,8.028-1.63,16.536-3.451,24.685c-1.742,11.649-11.261,20.252-8.569,37.55c0.318,24.12,8.573,35.896,10.763,44.298
	c15.546,54.966-12.307,82.316-35.569,118.522c-32.997,48.906-28.84,31.081-60.331,65.251
	c-14.896,15.365-13.964,27.883-12.247,39.454c7.491,45.908,70.376,19.46,69.417,51.579c-0.061,8.492-2.095,17.115-6.672,24.35
	c-6.09,9.792-2.303,30.822-2.453,40.444c-0.028,23.559,13.281,21.28,19.574,31.99c3.093,5.568,1.006,12.065,1.942,18.051
	c1.28,6.01,6.124,10.221,8.69,15.637c3.984,8.028,5.629,16.916,8.044,25.493c2.297,8.211,11.61,14.078,2.109,39.865
	c-2.269,6.17-9.071,35.064-9.185,41.03c-0.994,18.869,10.115,34.796,22.872,49.889c3.321,3.854,7.83,6.398,11.41,9.993
	c14.871,14.939,29.181,17.112,53.461,22.119c0,0,46.699,2.94,61.74,4.692c40.344,6.646,94.604-16.176,119.314,11.311
	c8.657,9.582,12.056,34.474,12.491,46.743c1.613,15.518-2.096,31.868,6.109,55.761c13.113,34.613,31.447,40.661,53.225,92.823
	c0.561,1.371,8.115,24.408,20.252,47.604c7.823,16.266,16.241,27.484,13.283,37.809c-8.659,32.646-21.77,27.836-58.374,98.977
	c-8.549,18.03-32.547,47.695-31.038,59.478c3.352,2.803,7.936,2.986,11.661,5.149h869.676c2.864-1.516,5.994-2.331,9.048-3.412
	C1311.101,1641.526,1307.277,1635.276,1303.433,1619.063z"/>
</svg>
